<svg version="1.2" xmlns="http://www.w3.org/2000/svg" viewBox="0 0 210 53" width="210" height="53"><style>.a{display:none}</style><path fill-rule="evenodd" class="a" d="m25.7 6.7h128v32h-128z"/><path fill-rule="evenodd" class="a" d="m25.7 43.8h128v32h-128z"/><path fill-rule="evenodd" class="a" d="m25.7 80.8h128v32h-128z"/><path fill-rule="evenodd" class="a" d="m41.7 117.9h96c8.9 0 16 7.1 16 16 0 8.8-7.1 16-16 16h-96c-8.8 0-16-7.2-16-16 0-8.9 7.2-16 16-16z"/><path fill-rule="evenodd" class="a" d="m34.4 154.9h110.6c4.8 0 8.7 3.9 8.7 8.7v14.6c0 4.8-3.9 8.7-8.7 8.7h-110.6c-4.8 0-8.7-3.9-8.7-8.7v-14.6c0-4.8 3.9-8.7 8.7-8.7z"/><path fill-rule="evenodd" d="m26.2 1h157.5c14.5 0 26.3 11.8 26.3 26.3 0 14.4-11.8 26.2-26.3 26.2h-157.5c-14.4 0-26.2-11.8-26.2-26.2 0-14.5 11.8-26.3 26.2-26.3z"/><path class="a" d="m163 27h-4.9v-0.8h2v-6.1l-1.8 1.3v-1l1.9-1.2h0.9v7h1.9z"/><path class="a" d="m163 64h-5.2v-0.7q0.3-0.7 0.7-1.1 0.4-0.5 0.8-0.9 0.5-0.5 0.9-0.8 0.5-0.3 0.8-0.7 0.4-0.3 0.6-0.7 0.2-0.4 0.2-0.9 0-0.6-0.4-1-0.3-0.3-1-0.3-0.7 0-1.1 0.3-0.4 0.4-0.5 1l-1-0.1q0.1-0.9 0.8-1.5 0.7-0.5 1.8-0.5 1.2 0 1.8 0.5 0.6 0.6 0.6 1.6 0 0.5-0.2 0.9-0.2 0.5-0.6 0.9-0.4 0.5-1.6 1.4-0.6 0.5-1 0.9-0.4 0.5-0.5 0.9h4.1z"/><path class="a" d="m163.5 96.8q0 1.1-0.7 1.7-0.7 0.6-2 0.6-1.2 0-1.9-0.5-0.7-0.6-0.8-1.6l1-0.1q0.2 1.4 1.7 1.4 0.8 0 1.2-0.4 0.4-0.4 0.4-1.1 0-0.6-0.5-1-0.5-0.3-1.4-0.3h-0.6v-0.9h0.6q0.8 0 1.3-0.4 0.4-0.3 0.4-1 0-0.6-0.4-1-0.3-0.3-1.1-0.3-0.6 0-1 0.3-0.4 0.4-0.5 1l-1-0.1q0.1-1 0.8-1.5 0.7-0.5 1.8-0.5 1.1 0 1.8 0.5 0.6 0.6 0.6 1.5 0 0.8-0.4 1.3-0.4 0.4-1.2 0.6 0.9 0.1 1.4 0.6 0.5 0.5 0.5 1.2z"/><path class="a" d="m163.2 136.2h-1.1v1.8h-0.9v-1.8h-3.7v-0.7l3.6-5.3h1v5.2h1.1zm-2-0.7v-4.2q-0.1 0-0.2 0.3-0.1 0.3-0.2 0.4l-2 2.9-0.3 0.4-0.1 0.2z"/><path class="a" d="m163.1 172.5q0 1.2-0.8 1.9-0.7 0.7-2 0.7-1.1 0-1.8-0.5-0.7-0.4-0.8-1.3l1-0.2q0.3 1.2 1.6 1.2 0.8 0 1.3-0.5 0.4-0.5 0.4-1.3 0-0.8-0.4-1.2-0.5-0.5-1.3-0.5-0.4 0-0.7 0.2-0.4 0.1-0.7 0.4h-1l0.3-4.2h4.4v0.8h-3.5l-0.2 2.5q0.7-0.5 1.6-0.5 1.2 0 1.9 0.7 0.7 0.7 0.7 1.8z"/><path class="a" d="m163 203.4q0 1.3-0.6 2-0.7 0.7-1.9 0.7-1.3 0-2-1-0.7-1-0.7-2.8 0-2.1 0.7-3.2 0.7-1 2.1-1 1.8 0 2.2 1.6l-0.9 0.1q-0.3-0.9-1.3-0.9-0.9 0-1.4 0.8-0.4 0.8-0.4 2.3 0.3-0.5 0.7-0.8 0.5-0.3 1.2-0.3 1.1 0 1.7 0.7 0.6 0.7 0.6 1.8zm-1 0.1q0-0.9-0.4-1.3-0.4-0.5-1.2-0.5-0.7 0-1.1 0.4-0.4 0.4-0.4 1.1 0 1 0.4 1.5 0.5 0.6 1.2 0.6 0.7 0 1.1-0.5 0.4-0.5 0.4-1.3z"/></svg>